<svg width="72" height="45" viewBox="0 0 72 45" fill="none" xmlns="http://www.w3.org/2000/svg">
<g clip-path="url(#clip0_42_30)">
<path d="M50.8436 15.6465H16.2717V38.6232H50.8436V15.6465Z" fill="#DEE8F5"/>
<path opacity="0.55" d="M51.2299 15.2776H15.5173V21.1169H51.2299V15.2776Z" fill="#C1D8ED"/>
<path d="M57.2976 40.2351H9.81763V42.6176H57.2976V40.2351Z" fill="#F3F5FD"/>
<path d="M55.632 37.8525H11.4834V40.235H55.632V37.8525Z" fill="#F3F5FD"/>
<path d="M55.632 39.5977H11.4834V40.235H55.632V39.5977Z" fill="#DEE8F5"/>
<path d="M57.2976 41.98H9.81763V42.6174H57.2976V41.98Z" fill="#DEE8F5"/>
<path d="M58.89 42.6174H8.28857V44.9999H58.89V42.6174Z" fill="#F3F5FD"/>
<path d="M58.89 44.3625H8.28857V44.9999H58.89V44.3625Z" fill="#DEE8F5"/>
<path d="M18.6653 17.4375H14.8447V36.7806H18.6653V17.4375Z" fill="#F3F5FD"/>
<path d="M28.3033 17.4375H24.4827V36.7806H28.3033V17.4375Z" fill="#F3F5FD"/>
<path d="M52.2701 17.4375H48.4495V36.7806H52.2701V17.4375Z" fill="#F3F5FD"/>
<path d="M13.6943 15.6465H19.816V17.8414C19.816 17.915 19.7868 17.9855 19.7348 18.0375C19.6828 18.0895 19.6122 18.1188 19.5387 18.1188H13.9717C13.8981 18.1188 13.8276 18.0895 13.7756 18.0375C13.7236 17.9855 13.6943 17.915 13.6943 17.8414V15.6465Z" fill="#C1D8ED"/>
<path d="M23.3323 15.6465H29.454V17.8414C29.454 17.915 29.4247 17.9855 29.3727 18.0375C29.3207 18.0895 29.2502 18.1188 29.1766 18.1188H23.6096C23.5361 18.1188 23.4655 18.0895 23.4135 18.0375C23.3615 17.9855 23.3323 17.915 23.3323 17.8414V15.6465Z" fill="#C1D8ED"/>
<path d="M47.2994 15.6465H53.421V17.8414C53.421 17.915 53.3918 17.9855 53.3398 18.0375C53.2878 18.0895 53.2172 18.1188 53.1437 18.1188H47.5764C47.5029 18.1188 47.4323 18.0895 47.3803 18.0375C47.3283 17.9855 47.2991 17.915 47.2991 17.8414V15.6465H47.2994Z" fill="#C1D8ED"/>
<path d="M13.9717 36.1184H19.5386C19.6121 36.1184 19.6827 36.1476 19.7347 36.1996C19.7867 36.2517 19.8159 36.3222 19.8159 36.3958V37.8527H13.6943V36.3958C13.6943 36.3222 13.7236 36.2517 13.7756 36.1996C13.8276 36.1476 13.8981 36.1184 13.9717 36.1184Z" fill="#C1D8ED"/>
<path d="M23.6096 36.1184H29.1765C29.2501 36.1184 29.3206 36.1476 29.3726 36.1996C29.4247 36.2517 29.4539 36.3222 29.4539 36.3958V37.8527H23.3323V36.3958C23.3323 36.3222 23.3615 36.2517 23.4135 36.1996C23.4655 36.1476 23.5361 36.1184 23.6096 36.1184Z" fill="#C1D8ED"/>
<path d="M47.5764 36.1184H53.1433C53.2168 36.1184 53.2874 36.1476 53.3394 36.1996C53.3914 36.2517 53.4206 36.3222 53.4206 36.3958V37.8527H47.2993V36.3958C47.2993 36.3223 47.3285 36.2518 47.3805 36.1997C47.4324 36.1477 47.5029 36.1185 47.5764 36.1184Z" fill="#C1D8ED"/>
<path d="M16.2698 19.1801C16.2698 19.0739 16.1837 18.9878 16.0775 18.9878C15.9713 18.9878 15.8853 19.0739 15.8853 19.1801V35.0378C15.8853 35.144 15.9713 35.2301 16.0775 35.2301C16.1837 35.2301 16.2698 35.144 16.2698 35.0378V19.1801Z" fill="#C1D8ED"/>
<path d="M17.625 19.1801C17.625 19.0739 17.539 18.9878 17.4328 18.9878C17.3266 18.9878 17.2405 19.0739 17.2405 19.1801V35.0378C17.2405 35.144 17.3266 35.2301 17.4328 35.2301C17.539 35.2301 17.625 35.144 17.625 35.0378V19.1801Z" fill="#C1D8ED"/>
<path d="M25.9075 19.1801C25.9075 19.0739 25.8214 18.9878 25.7152 18.9878C25.609 18.9878 25.5229 19.0739 25.5229 19.1801V35.0378C25.5229 35.144 25.609 35.2301 25.7152 35.2301C25.8214 35.2301 25.9075 35.144 25.9075 35.0378V19.1801Z" fill="#C1D8ED"/>
<path d="M27.263 19.1801C27.263 19.0739 27.1769 18.9878 27.0707 18.9878C26.9645 18.9878 26.8784 19.0739 26.8784 19.1801V35.0378C26.8784 35.144 26.9645 35.2301 27.0707 35.2301C27.1769 35.2301 27.263 35.144 27.263 35.0378V19.1801Z" fill="#C1D8ED"/>
<path d="M42.9297 17.4375H39.1091V36.7806H42.9297V17.4375Z" fill="#F3F5FD"/>
<path d="M37.9585 15.6465H44.0802V17.8414C44.0802 17.915 44.051 17.9855 43.999 18.0375C43.9469 18.0895 43.8764 18.1188 43.8028 18.1188H38.2359C38.1623 18.1188 38.0918 18.0895 38.0397 18.0375C37.9877 17.9855 37.9585 17.915 37.9585 17.8414V15.6465Z" fill="#C1D8ED"/>
<path d="M38.2359 36.1184H43.8032C43.8768 36.1184 43.9473 36.1476 43.9993 36.1996C44.0513 36.2517 44.0806 36.3222 44.0806 36.3958V37.8527H37.9585V36.3958C37.9585 36.3222 37.9877 36.2517 38.0397 36.1996C38.0918 36.1476 38.1623 36.1184 38.2359 36.1184Z" fill="#C1D8ED"/>
<path d="M40.534 19.1801C40.534 19.0739 40.4479 18.9878 40.3417 18.9878C40.2355 18.9878 40.1494 19.0739 40.1494 19.1801V35.0378C40.1494 35.144 40.2355 35.2301 40.3417 35.2301C40.4479 35.2301 40.534 35.144 40.534 35.0378V19.1801Z" fill="#C1D8ED"/>
<path d="M41.8895 19.1801C41.8895 19.0739 41.8034 18.9878 41.6972 18.9878C41.591 18.9878 41.5049 19.0739 41.5049 19.1801V35.0378C41.5049 35.144 41.591 35.2301 41.6972 35.2301C41.8034 35.2301 41.8895 35.144 41.8895 35.0378V19.1801Z" fill="#C1D8ED"/>
<path d="M49.8746 19.1801C49.8746 19.0739 49.7885 18.9878 49.6823 18.9878C49.5761 18.9878 49.49 19.0739 49.49 19.1801V35.0378C49.49 35.144 49.5761 35.2301 49.6823 35.2301C49.7885 35.2301 49.8746 35.144 49.8746 35.0378V19.1801Z" fill="#C1D8ED"/>
<path d="M51.2298 19.1801C51.2298 19.0739 51.1437 18.9878 51.0375 18.9878C50.9313 18.9878 50.8452 19.0739 50.8452 19.1801V35.0378C50.8452 35.144 50.9313 35.2301 51.0375 35.2301C51.1437 35.2301 51.2298 35.144 51.2298 35.0378V19.1801Z" fill="#C1D8ED"/>
<path d="M55.0914 14.7853V16.1922C55.0914 16.2679 55.0613 16.3404 55.0078 16.394C54.9543 16.4475 54.8818 16.4775 54.8061 16.4776H12.2209C12.1452 16.4776 12.0726 16.4475 12.0191 16.394C11.9656 16.3405 11.9355 16.2679 11.9355 16.1922V14.8457C11.9355 14.7793 11.9518 14.7139 11.9829 14.6552C12.0139 14.5965 12.0589 14.5462 12.1138 14.5089L33.3282 0.0705782C33.3958 0.0245915 33.4756 0 33.5574 0C33.6391 0 33.719 0.0245915 33.7866 0.0705782L54.9127 14.4484C54.9677 14.4858 55.0128 14.536 55.0439 14.5947C55.075 14.6534 55.0913 14.7189 55.0914 14.7853Z" fill="#DEE8F5"/>
<path d="M49.4052 14.1031H17.71C17.6866 14.103 17.6637 14.0955 17.6449 14.0816C17.626 14.0677 17.6121 14.0481 17.6052 14.0256C17.5983 14.0032 17.5988 13.9792 17.6065 13.9571C17.6143 13.935 17.6289 13.9159 17.6483 13.9027L33.4956 3.11687C33.5138 3.10451 33.5353 3.0979 33.5573 3.0979C33.5793 3.0979 33.6008 3.10451 33.619 3.11687L49.467 13.9027C49.4863 13.9159 49.501 13.935 49.5087 13.9571C49.5165 13.9792 49.5169 14.0032 49.51 14.0256C49.5031 14.0481 49.4892 14.0677 49.4704 14.0816C49.4515 14.0955 49.4287 14.103 49.4052 14.1031Z" fill="#F3F5FD"/>
<path d="M20.1174 39.2683H25.4749C25.5467 39.2683 25.6156 39.2968 25.6664 39.3476C25.7172 39.3984 25.7458 39.4673 25.7458 39.5392V40.908C25.7457 40.9799 25.7172 41.0487 25.6664 41.0995C25.6156 41.1503 25.5467 41.1788 25.4749 41.1788H20.1174V39.2683Z" fill="#8DDBE0"/>
<path d="M13.4626 39.2683H10.6226V41.1789H13.4626V39.2683Z" fill="#0CBC8B"/>
<path d="M3.43195 39.2683H10.5967V41.1788H3.43195C3.36017 41.1787 3.29135 41.1502 3.24062 41.0994C3.18988 41.0487 3.16138 40.9798 3.16138 40.908V39.5392C3.16138 39.4674 3.18988 39.3985 3.24061 39.3477C3.29134 39.297 3.36017 39.2684 3.43195 39.2683Z" fill="#8DDBE0"/>
<path opacity="0.15" d="M20.1174 39.2683H25.4749C25.5467 39.2683 25.6156 39.2968 25.6664 39.3476C25.7172 39.3984 25.7458 39.4673 25.7458 39.5392V40.908C25.7457 40.9799 25.7172 41.0487 25.6664 41.0995C25.6156 41.1503 25.5467 41.1788 25.4749 41.1788H20.1174V39.2683Z" fill="#0F1011"/>
<path d="M13.4626 39.2683H20.1627C20.2345 39.2683 20.3034 39.2968 20.3542 39.3476C20.405 39.3984 20.4335 39.4673 20.4335 39.5392V40.908C20.4335 40.9799 20.405 41.0487 20.3542 41.0995C20.3034 41.1503 20.2345 41.1788 20.1627 41.1788H13.4626V39.2683Z" fill="#8DDBE0"/>
<path d="M16.9563 41.1787H22.3138C22.3856 41.1787 22.4545 41.2072 22.5053 41.258C22.5561 41.3088 22.5846 41.3777 22.5846 41.4496V42.8184C22.5846 42.8903 22.5561 42.9592 22.5053 43.01C22.4545 43.0608 22.3856 43.0893 22.3138 43.0893H16.9563V41.1787Z" fill="#8DDBE0"/>
<path d="M10.3014 41.1787H7.46143V43.0893H10.3014V41.1787Z" fill="#0CBC8B"/>
<path d="M0.270854 41.1787H7.43561V43.0893H0.270854C0.199019 43.0893 0.130126 43.0608 0.0793313 43.01C0.0285363 42.9592 0 42.8903 0 42.8184L0 41.4496C0 41.3777 0.0285363 41.3088 0.0793313 41.258C0.130126 41.2072 0.199019 41.1787 0.270854 41.1787Z" fill="#8DDBE0"/>
<path opacity="0.15" d="M16.9563 41.1787H22.3138C22.3856 41.1787 22.4545 41.2072 22.5053 41.258C22.5561 41.3088 22.5846 41.3777 22.5846 41.4496V42.8184C22.5846 42.8903 22.5561 42.9592 22.5053 43.01C22.4545 43.0608 22.3856 43.0893 22.3138 43.0893H16.9563V41.1787Z" fill="#0F1011"/>
<path d="M10.3013 41.1787H17.0013C17.0731 41.1787 17.142 41.2072 17.1928 41.258C17.2436 41.3088 17.2722 41.3777 17.2722 41.4496V42.8184C17.2722 42.8903 17.2436 42.9592 17.1928 43.01C17.142 43.0608 17.0731 43.0893 17.0013 43.0893H10.3013V41.1787Z" fill="#8DDBE0"/>
<path d="M18.0261 43.0894H23.3837C23.4555 43.0894 23.5244 43.1179 23.5752 43.1687C23.6259 43.2195 23.6545 43.2884 23.6545 43.3602V44.7291C23.6545 44.8009 23.6259 44.8698 23.5752 44.9206C23.5244 44.9714 23.4555 44.9999 23.3837 44.9999H18.0261V43.0894Z" fill="#8DDBE0"/>
<path opacity="0.15" d="M18.0261 43.0894H23.3837C23.4555 43.0894 23.5244 43.1179 23.5752 43.1687C23.6259 43.2195 23.6545 43.2884 23.6545 43.3602V44.7291C23.6545 44.8009 23.6259 44.8698 23.5752 44.9206C23.5244 44.9714 23.4555 44.9999 23.3837 44.9999H18.0261V43.0894Z" fill="#0F1011"/>
<path d="M11.3713 43.0894H8.53125V44.9999H11.3713V43.0894Z" fill="#0CBC8B"/>
<path d="M1.34068 43.0894H8.50543V44.9999H1.34068C1.26884 44.9999 1.19995 44.9714 1.14916 44.9206C1.09836 44.8698 1.06982 44.8009 1.06982 44.7291V43.3602C1.06982 43.2884 1.09836 43.2195 1.14916 43.1687C1.19995 43.1179 1.26884 43.0894 1.34068 43.0894Z" fill="#8DDBE0"/>
<path d="M11.3716 43.0894H18.0716C18.1435 43.0894 18.2123 43.1179 18.2631 43.1687C18.3139 43.2195 18.3425 43.2884 18.3425 43.3602V44.7291C18.3425 44.8009 18.3139 44.8698 18.2631 44.9206C18.2123 44.9714 18.1435 44.9999 18.0716 44.9999H11.3716V43.0894Z" fill="#8DDBE0"/>
<path d="M11.2227 28.4919C11.1512 28.4165 11.0532 28.372 10.9494 28.3677H7.96782C7.86403 28.372 7.76601 28.4165 7.69455 28.4919C6.43892 29.7959 5.29205 31.2004 4.2654 32.6913C3.02299 34.5301 3.22178 36.2447 4.7873 37.8349C6.02972 39.1023 7.66972 39.2761 9.45877 39.2761C11.2478 39.2761 12.8878 39.1023 14.1302 37.8349C15.6958 36.2449 15.8946 34.5301 14.652 32.6913C13.6184 31.2056 12.4719 29.8017 11.2227 28.4919Z" fill="#0CBC8B"/>
<path d="M13.8321 24.6405C13.3958 24.1518 12.6655 24.5823 11.9422 25.0973C11.7109 25.2616 11.425 25.33 11.1445 25.2881C10.8639 25.2462 10.6105 25.0973 10.4373 24.8725C10.122 24.4653 9.77774 24.1187 9.45881 24.1187C9.15467 24.1187 8.80795 24.4646 8.48874 24.8718C8.31188 25.0956 8.05444 25.2412 7.77155 25.2774C7.48866 25.3137 7.2028 25.2378 6.97519 25.0659C6.27486 24.5378 5.56699 24.0903 5.13519 24.5912C3.94726 26.2834 7.42122 28.7927 7.74424 29.0661C7.81863 29.1158 11.1236 29.1158 11.1734 29.0661C11.4964 28.8173 15.128 26.1237 13.8321 24.6405Z" fill="#0CBC8B"/>
<path d="M11.6455 29.1381H7.27218C7.22322 29.1381 7.17475 29.1285 7.12953 29.1097C7.0843 29.091 7.04321 29.0635 7.00859 29.0289C6.97398 28.9943 6.94652 28.9532 6.92779 28.908C6.90906 28.8628 6.89941 28.8143 6.89941 28.7653C6.89941 28.7164 6.90906 28.6679 6.92779 28.6227C6.94652 28.5775 6.97398 28.5364 7.00859 28.5018C7.04321 28.4671 7.0843 28.4397 7.12953 28.421C7.17475 28.4022 7.22322 28.3926 7.27218 28.3926H11.6455C11.7436 28.395 11.837 28.435 11.9064 28.5044C11.9758 28.5738 12.0158 28.6672 12.0182 28.7653C12.0191 28.8145 12.0101 28.8634 11.9917 28.9091C11.9733 28.9547 11.9459 28.9962 11.9111 29.031C11.8763 29.0658 11.8348 29.0932 11.7892 29.1116C11.7435 29.13 11.6947 29.139 11.6455 29.1381Z" fill="#262626"/>
<path d="M9.17513 37.1442V36.4074C8.94088 36.3781 8.71164 36.3174 8.49358 36.2269C8.26729 36.1386 8.05888 36.0101 7.87842 35.8475L8.34965 35.118C8.51346 35.247 8.69295 35.3547 8.88382 35.4386C9.04804 35.5087 9.22472 35.5451 9.40331 35.5454C9.6096 35.5454 9.76064 35.5036 9.85641 35.4201C9.90701 35.3708 9.94612 35.3108 9.97095 35.2446C9.99578 35.1784 10.0057 35.1075 10.0001 35.0371C10.0009 34.9759 9.9885 34.9152 9.96371 34.8592C9.93891 34.8033 9.90231 34.7533 9.85641 34.7128C9.74634 34.6144 9.62517 34.5291 9.49536 34.4586C9.35043 34.3776 9.19447 34.2966 9.02748 34.2156C8.86171 34.1353 8.70489 34.0377 8.5596 33.9245C8.41695 33.814 8.29478 33.6794 8.19865 33.5267C8.09838 33.3575 8.04854 33.1632 8.05499 32.9667C8.04265 32.6397 8.14858 32.3193 8.35337 32.0642C8.56455 31.8189 8.85541 31.6558 9.17485 31.6036V30.8447H9.88951V31.5886C10.1082 31.6171 10.3188 31.6898 10.5084 31.8024C10.685 31.9104 10.8461 32.0417 10.9873 32.193L10.4422 32.8119C10.328 32.7024 10.199 32.6094 10.059 32.5356C9.92817 32.4724 9.7843 32.4408 9.63902 32.4434C9.49537 32.4338 9.35264 32.4727 9.2338 32.554C9.18402 32.5992 9.14547 32.6554 9.12122 32.7181C9.09696 32.7809 9.08766 32.8484 9.09405 32.9153C9.09369 32.9727 9.10645 33.0294 9.13134 33.0811C9.15624 33.1329 9.19262 33.1782 9.23771 33.2137C9.34873 33.3048 9.46988 33.3828 9.59876 33.4462C9.74362 33.5198 9.89958 33.5959 10.0666 33.6746C10.2328 33.7527 10.3897 33.849 10.5344 33.9619C10.6791 34.0748 10.8015 34.2135 10.8956 34.371C10.9967 34.552 11.0463 34.7571 11.0392 34.9643C11.0477 35.2911 10.9466 35.6114 10.7518 35.8741C10.5603 36.1272 10.2729 36.2954 9.88979 36.3788V37.145L9.17513 37.1442Z" fill="#F1F1F1"/>
<path d="M55.1272 32.1352C55.1272 32.1352 53.0779 30.6159 52.3484 31.2139C51.6883 31.7546 52.4528 33.913 52.4528 33.913C52.4528 33.913 54.2147 34.0716 55.1272 32.1352Z" fill="#DEE8F5"/>
<path d="M68.643 37.0824C68.643 40.9111 65.4935 44.0149 60.5402 44.0149C55.5869 44.0149 51.5715 40.9111 51.5715 37.0824C51.5715 33.2537 55.5869 30.1499 60.5402 30.1499C65.4935 30.1499 68.643 33.2537 68.643 37.0824Z" fill="#C1D8ED"/>
<path d="M56.7717 41.061H56.1939C56.1452 41.0681 56.0957 41.0681 56.047 41.061H55.4692C55.3193 41.061 55.1756 41.1206 55.0696 41.2266C54.9636 41.3325 54.9041 41.4763 54.9041 41.6262V44.4621C54.904 44.5327 54.9179 44.6026 54.9449 44.6678C54.9719 44.733 55.0115 44.7922 55.0614 44.8421C55.1113 44.892 55.1705 44.9316 55.2357 44.9586C55.3009 44.9856 55.3708 44.9995 55.4414 44.9995H56.0748C56.0902 44.9995 56.1054 44.9985 56.1204 44.9972C56.1355 44.9985 56.1507 44.9995 56.1661 44.9995H56.7995C56.942 44.9995 57.0787 44.9429 57.1795 44.8421C57.2803 44.7413 57.3369 44.6046 57.3369 44.4621V41.6262C57.3369 41.4763 57.2773 41.3325 57.1713 41.2266C57.0653 41.1206 56.9216 41.061 56.7717 41.061Z" fill="#C1D8ED"/>
<path d="M64.4395 41.061H63.8617C63.813 41.0681 63.7635 41.0681 63.7148 41.061H63.137C62.9871 41.061 62.8434 41.1206 62.7374 41.2266C62.6314 41.3325 62.5718 41.4763 62.5718 41.6262V44.4621C62.5718 44.6046 62.6284 44.7413 62.7292 44.8421C62.83 44.9429 62.9667 44.9995 63.1092 44.9995H63.7426C63.758 44.9995 63.7732 44.9985 63.7883 44.9972C63.8033 44.9985 63.8185 44.9995 63.8339 44.9995H64.4673C64.6098 44.9995 64.7465 44.9429 64.8473 44.8421C64.9481 44.7413 65.0047 44.6046 65.0047 44.4621V41.6262C65.0047 41.4763 64.9451 41.3325 64.8391 41.2266C64.7331 41.1206 64.5894 41.061 64.4395 41.061Z" fill="#C1D8ED"/>
<path d="M53.2209 34.8233C53.3826 34.8233 53.5138 34.6922 53.5138 34.5304C53.5138 34.3687 53.3826 34.2375 53.2209 34.2375C53.0591 34.2375 52.928 34.3687 52.928 34.5304C52.928 34.6922 53.0591 34.8233 53.2209 34.8233Z" fill="#111314"/>
<path d="M69.5149 38.2585C69.4463 38.2586 69.3778 38.2525 69.3103 38.2404C69.1256 38.2072 68.9509 38.1324 68.7993 38.0217C68.6478 37.911 68.5234 37.7673 68.4356 37.6014C68.3509 37.4337 68.3065 37.2485 68.3061 37.0606C68.3056 36.8727 68.3491 36.6873 68.4329 36.5192C68.5242 36.3143 68.6587 36.1317 68.8274 35.9838C68.4142 35.8899 67.9901 35.8532 67.5669 35.8749C67.4791 35.8814 67.3923 35.8528 67.3256 35.7954C67.2589 35.7379 67.2177 35.6563 67.2111 35.5685C67.2046 35.4807 67.2332 35.3939 67.2906 35.3272C67.3481 35.2605 67.4297 35.2193 67.5175 35.2127C67.5776 35.2082 68.8429 35.1205 69.7405 35.6341C70.4306 35.5927 71.0888 35.9173 71.1222 35.9341C71.1612 35.9536 71.1959 35.9806 71.2245 36.0136C71.253 36.0466 71.2748 36.0848 71.2885 36.1262C71.3022 36.1676 71.3077 36.2112 71.3046 36.2547C71.3014 36.2982 71.2898 36.3406 71.2702 36.3796C71.2507 36.4186 71.2237 36.4533 71.1907 36.4818C71.1577 36.5104 71.1195 36.5321 71.0781 36.5459C70.9946 36.5736 70.9034 36.567 70.8247 36.5276C70.7105 36.4733 70.5921 36.4282 70.4707 36.3928C70.5647 36.5946 70.6183 36.8129 70.6283 37.0353C70.6438 37.211 70.6185 37.3879 70.5545 37.5522C70.4905 37.7166 70.3895 37.864 70.2593 37.9829C70.0528 38.1621 69.7882 38.26 69.5149 38.2585ZM69.5829 36.3252C69.555 36.3321 69.5271 36.3402 69.5008 36.3496C69.3963 36.3875 69.3009 36.4468 69.2208 36.5239C69.1407 36.601 69.0777 36.6941 69.0359 36.7971C68.9946 36.8731 68.9719 36.9579 68.9699 37.0444C68.9679 37.1309 68.9865 37.2166 69.0243 37.2945C69.0659 37.3699 69.1237 37.4352 69.1935 37.4858C69.2632 37.5363 69.3433 37.5709 69.4279 37.5869C69.4966 37.6002 69.5674 37.5979 69.6351 37.5802C69.7027 37.5625 69.7656 37.5299 69.8189 37.4846C69.8736 37.4316 69.9152 37.3667 69.9405 37.2949C69.9658 37.2231 69.9742 37.1464 69.9649 37.0709C69.9615 36.9363 69.9299 36.804 69.8722 36.6824C69.8146 36.5608 69.7321 36.4525 69.6302 36.3647C69.615 36.3512 69.5992 36.3381 69.5829 36.3252Z" fill="#C1D8ED"/>
<path d="M68.7348 36.9901C68.6791 36.99 68.6244 36.976 68.5755 36.9492C68.5267 36.9224 68.4854 36.8839 68.4554 36.837C68.4254 36.7901 68.4077 36.7364 68.4039 36.6808C68.4 36.6253 68.4102 36.5697 68.4335 36.5191C68.512 36.3346 68.6281 36.1684 68.7744 36.0312C68.9206 35.894 69.0939 35.7888 69.2831 35.7224C70.1083 35.4331 71.0814 35.913 71.1224 35.9335C71.1613 35.9531 71.1961 35.9801 71.2246 36.013C71.2531 36.046 71.2749 36.0843 71.2886 36.1256C71.3024 36.167 71.3078 36.2107 71.3047 36.2542C71.3015 36.2976 71.2899 36.3401 71.2703 36.379C71.2508 36.418 71.2238 36.4527 71.1908 36.4813C71.1579 36.5098 71.1196 36.5316 71.0782 36.5453C70.9947 36.5731 70.9035 36.5665 70.8248 36.527C70.6141 36.4225 69.9641 36.1861 69.501 36.3495C69.3965 36.3873 69.3011 36.4467 69.221 36.5238C69.1409 36.6009 69.0779 36.6939 69.0361 36.7969C69.0096 36.8545 68.9671 36.9033 68.9137 36.9376C68.8603 36.9718 68.7982 36.99 68.7348 36.9901Z" fill="#DEE8F5"/>
<path d="M54.6916 32.8574C54.6186 32.787 54.5728 32.6931 54.5622 32.5923C54.5516 32.4914 54.5769 32.3901 54.6337 32.3061C55.0236 31.7331 55.9169 30.557 56.5317 30.7976C57.0946 31.0177 57.2291 32.4277 57.2619 33.0632C57.2692 33.1536 57.2456 33.2438 57.1949 33.319C57.1442 33.3942 57.0695 33.4499 56.983 33.477C56.5313 33.5997 55.6139 33.6928 54.6916 32.8574Z" fill="#DEE8F5"/>
<path d="M49.9578 35.9224L56.5472 35.9801V40.33L50.5351 40.3035" fill="#C1D8ED"/>
<path d="M50.59 40.3076C51.1324 40.2254 51.4231 39.1763 51.2395 37.9644C51.0558 36.7524 50.4672 35.8366 49.9249 35.9188C49.3825 36.001 49.0918 37.0501 49.2754 38.262C49.4591 39.474 50.0477 40.3898 50.59 40.3076Z" fill="#DEE8F5"/>
<path d="M62.7025 30.7354H58.2921C58.1155 30.7354 57.9724 30.8785 57.9724 31.055V31.0551C57.9724 31.2317 58.1155 31.3748 58.2921 31.3748H62.7025C62.8791 31.3748 63.0222 31.2317 63.0222 31.0551V31.055C63.0222 30.8785 62.8791 30.7354 62.7025 30.7354Z" fill="#E9EFF4"/>
<path d="M62.9948 31.1845C62.9697 31.2411 62.9287 31.2892 62.8768 31.323C62.8249 31.3568 62.7643 31.3747 62.7023 31.3747H58.2921C58.2301 31.3748 58.1695 31.3568 58.1177 31.3229C58.0658 31.2891 58.0249 31.2409 58 31.1842C58.0157 31.1479 58.0382 31.115 58.0664 31.0872C58.0959 31.0574 58.131 31.0337 58.1698 31.0176C58.2085 31.0015 58.2501 30.9933 58.2921 30.9934H62.7026C62.7646 30.9934 62.8253 31.0115 62.8771 31.0455C62.929 31.0794 62.9699 31.1277 62.9948 31.1845Z" fill="#0F1011"/>
<path d="M60.8641 28.6652C62.6601 28.6652 64.1161 27.2092 64.1161 25.4131C64.1161 23.6171 62.6601 22.1611 60.8641 22.1611C59.068 22.1611 57.6121 23.6171 57.6121 25.4131C57.6121 27.2092 59.068 28.6652 60.8641 28.6652Z" fill="#0CBC8B"/>
<g opacity="0.29">
<path d="M60.864 27.5213C62.0283 27.5213 62.9722 26.5774 62.9722 25.4131C62.9722 24.2488 62.0283 23.3049 60.864 23.3049C59.6997 23.3049 58.7559 24.2488 58.7559 25.4131C58.7559 26.5774 59.6997 27.5213 60.864 27.5213Z" fill="white"/>
</g>
<path d="M60.1741 26.1661L60.3707 25.8612C60.4918 25.9691 60.6459 26.0326 60.8077 26.0415C60.9815 26.0415 61.058 25.9695 61.058 25.8299C61.058 25.5144 60.2486 25.5201 60.2486 24.9667C60.2486 24.6111 60.495 24.3845 60.8835 24.3845C60.9939 24.3829 61.1033 24.4054 61.2041 24.4504C61.3049 24.4953 61.3947 24.5617 61.4673 24.6448L61.2417 24.9031C61.1991 24.8564 61.1477 24.8186 61.0903 24.7921C61.033 24.7655 60.9709 24.7507 60.9077 24.7484C60.7602 24.7484 60.6802 24.8079 60.6802 24.9456C60.6802 25.2381 61.4896 25.2126 61.4896 25.7987C61.4896 26.1508 61.2566 26.4055 60.8077 26.4055C60.5754 26.4002 60.3519 26.3158 60.1741 26.1661ZM60.7134 24.084H61.0125V24.5256H60.7134V24.084ZM60.7134 26.2212H61.0125V26.7058H60.7134V26.2212Z" fill="white"/>
<path d="M63.0223 20.5134C64.4313 20.5134 65.5734 19.3712 65.5734 17.9623C65.5734 16.5533 64.4313 15.4111 63.0223 15.4111C61.6134 15.4111 60.4712 16.5533 60.4712 17.9623C60.4712 19.3712 61.6134 20.5134 63.0223 20.5134Z" fill="#0CBC8B"/>
<g opacity="0.29">
<path d="M63.0224 19.6161C63.9358 19.6161 64.6762 18.8757 64.6762 17.9624C64.6762 17.049 63.9358 16.3086 63.0224 16.3086C62.1091 16.3086 61.3687 17.049 61.3687 17.9624C61.3687 18.8757 62.1091 19.6161 63.0224 19.6161Z" fill="white"/>
</g>
<path d="M62.481 18.5532L62.6352 18.3139C62.7302 18.3985 62.8512 18.4484 62.9782 18.4554C63.1145 18.4554 63.1745 18.3988 63.1745 18.2894C63.1745 18.0419 62.5395 18.0463 62.5395 17.6122C62.5395 17.3333 62.7328 17.1555 63.0376 17.1555C63.1242 17.1542 63.21 17.1718 63.2891 17.207C63.3682 17.2423 63.4386 17.2943 63.4956 17.3595L63.3189 17.5622C63.2855 17.5256 63.2451 17.4961 63.2001 17.4753C63.1551 17.4545 63.1064 17.443 63.0569 17.4413C62.9412 17.4413 62.8784 17.4878 62.8784 17.596C62.8784 17.8254 63.5134 17.8053 63.5134 18.2655C63.5134 18.5416 63.3306 18.7415 62.9785 18.7415C62.796 18.7373 62.6205 18.6708 62.481 18.5532ZM62.904 16.9197H63.1387V17.2661H62.904V16.9197ZM62.904 18.5963H63.1387V18.9765H62.904V18.5963Z" fill="white"/>
</g>
<defs>
<clipPath id="clip0_42_30">
<rect width="71.3055" height="45" fill="white"/>
</clipPath>
</defs>
</svg>
